<mxfile host="app.diagrams.net" modified="2023-05-06T01:10:26.361Z" agent="Mozilla/5.0 (Windows NT 10.0; Win64; x64) AppleWebKit/537.36 (KHTML, like Gecko) Chrome/112.0.0.0 Safari/537.36" etag="5NzEfV2aU2RVJK5AIGuL" version="21.2.9" type="github">
  <diagram id="C5RBs43oDa-KdzZeNtuy" name="Page-1">
    <mxGraphModel dx="1434" dy="774" grid="1" gridSize="10" guides="1" tooltips="1" connect="1" arrows="1" fold="1" page="1" pageScale="1" pageWidth="827" pageHeight="1169" math="0" shadow="0">
      <root>
        <mxCell id="WIyWlLk6GJQsqaUBKTNV-0" />
        <mxCell id="WIyWlLk6GJQsqaUBKTNV-1" parent="WIyWlLk6GJQsqaUBKTNV-0" />
        <mxCell id="TOlMH3WNeumMdiL53Y2s-4" style="edgeStyle=orthogonalEdgeStyle;rounded=0;orthogonalLoop=1;jettySize=auto;html=1;entryX=0.5;entryY=0;entryDx=0;entryDy=0;" edge="1" parent="WIyWlLk6GJQsqaUBKTNV-1" source="WIyWlLk6GJQsqaUBKTNV-3" target="TOlMH3WNeumMdiL53Y2s-1">
          <mxGeometry relative="1" as="geometry" />
        </mxCell>
        <mxCell id="WIyWlLk6GJQsqaUBKTNV-3" value="/login" style="rounded=1;whiteSpace=wrap;html=1;fontSize=12;glass=0;strokeWidth=1;shadow=0;" parent="WIyWlLk6GJQsqaUBKTNV-1" vertex="1">
          <mxGeometry x="80" y="60" width="120" height="40" as="geometry" />
        </mxCell>
        <mxCell id="TOlMH3WNeumMdiL53Y2s-5" style="edgeStyle=orthogonalEdgeStyle;rounded=0;orthogonalLoop=1;jettySize=auto;html=1;exitX=0.5;exitY=1;exitDx=0;exitDy=0;" edge="1" parent="WIyWlLk6GJQsqaUBKTNV-1" source="TOlMH3WNeumMdiL53Y2s-1">
          <mxGeometry relative="1" as="geometry">
            <mxPoint x="140" y="280" as="targetPoint" />
          </mxGeometry>
        </mxCell>
        <mxCell id="TOlMH3WNeumMdiL53Y2s-1" value="从cookie中取出owner&lt;br&gt;（验证码）去redis中查值" style="rounded=0;whiteSpace=wrap;html=1;" vertex="1" parent="WIyWlLk6GJQsqaUBKTNV-1">
          <mxGeometry x="80" y="180" width="120" height="60" as="geometry" />
        </mxCell>
        <mxCell id="TOlMH3WNeumMdiL53Y2s-11" style="edgeStyle=orthogonalEdgeStyle;rounded=0;orthogonalLoop=1;jettySize=auto;html=1;exitX=0.5;exitY=1;exitDx=0;exitDy=0;entryX=0.5;entryY=0;entryDx=0;entryDy=0;" edge="1" parent="WIyWlLk6GJQsqaUBKTNV-1" source="TOlMH3WNeumMdiL53Y2s-9" target="TOlMH3WNeumMdiL53Y2s-10">
          <mxGeometry relative="1" as="geometry" />
        </mxCell>
        <mxCell id="TOlMH3WNeumMdiL53Y2s-9" value="是否正确，或者是否存在" style="rhombus;whiteSpace=wrap;html=1;" vertex="1" parent="WIyWlLk6GJQsqaUBKTNV-1">
          <mxGeometry x="100" y="280" width="80" height="80" as="geometry" />
        </mxCell>
        <mxCell id="TOlMH3WNeumMdiL53Y2s-13" value="" style="edgeStyle=orthogonalEdgeStyle;rounded=0;orthogonalLoop=1;jettySize=auto;html=1;" edge="1" parent="WIyWlLk6GJQsqaUBKTNV-1" source="TOlMH3WNeumMdiL53Y2s-10" target="TOlMH3WNeumMdiL53Y2s-12">
          <mxGeometry relative="1" as="geometry" />
        </mxCell>
        <mxCell id="TOlMH3WNeumMdiL53Y2s-10" value="检查账号密码" style="rounded=0;whiteSpace=wrap;html=1;" vertex="1" parent="WIyWlLk6GJQsqaUBKTNV-1">
          <mxGeometry x="80" y="380" width="120" height="60" as="geometry" />
        </mxCell>
        <mxCell id="TOlMH3WNeumMdiL53Y2s-15" value="" style="edgeStyle=orthogonalEdgeStyle;rounded=0;orthogonalLoop=1;jettySize=auto;html=1;" edge="1" parent="WIyWlLk6GJQsqaUBKTNV-1" source="TOlMH3WNeumMdiL53Y2s-12" target="TOlMH3WNeumMdiL53Y2s-14">
          <mxGeometry relative="1" as="geometry" />
        </mxCell>
        <mxCell id="TOlMH3WNeumMdiL53Y2s-12" value="根据账号，时间随机数生成登陆凭证，存到redisi当中（原本存入数据库）" style="whiteSpace=wrap;html=1;rounded=0;" vertex="1" parent="WIyWlLk6GJQsqaUBKTNV-1">
          <mxGeometry x="80" y="460" width="120" height="60" as="geometry" />
        </mxCell>
        <mxCell id="TOlMH3WNeumMdiL53Y2s-19" value="" style="edgeStyle=orthogonalEdgeStyle;rounded=0;orthogonalLoop=1;jettySize=auto;html=1;" edge="1" parent="WIyWlLk6GJQsqaUBKTNV-1" source="TOlMH3WNeumMdiL53Y2s-14" target="TOlMH3WNeumMdiL53Y2s-18">
          <mxGeometry relative="1" as="geometry" />
        </mxCell>
        <mxCell id="TOlMH3WNeumMdiL53Y2s-14" value="并将ticket存入cookie并返回" style="whiteSpace=wrap;html=1;rounded=0;" vertex="1" parent="WIyWlLk6GJQsqaUBKTNV-1">
          <mxGeometry x="80" y="540" width="120" height="60" as="geometry" />
        </mxCell>
        <mxCell id="TOlMH3WNeumMdiL53Y2s-53" value="" style="edgeStyle=orthogonalEdgeStyle;rounded=0;orthogonalLoop=1;jettySize=auto;html=1;" edge="1" parent="WIyWlLk6GJQsqaUBKTNV-1" source="TOlMH3WNeumMdiL53Y2s-18" target="TOlMH3WNeumMdiL53Y2s-52">
          <mxGeometry relative="1" as="geometry" />
        </mxCell>
        <mxCell id="TOlMH3WNeumMdiL53Y2s-18" value="结束" style="whiteSpace=wrap;html=1;rounded=0;" vertex="1" parent="WIyWlLk6GJQsqaUBKTNV-1">
          <mxGeometry x="80" y="620" width="120" height="60" as="geometry" />
        </mxCell>
        <mxCell id="TOlMH3WNeumMdiL53Y2s-23" value="" style="edgeStyle=orthogonalEdgeStyle;rounded=0;orthogonalLoop=1;jettySize=auto;html=1;" edge="1" parent="WIyWlLk6GJQsqaUBKTNV-1" source="TOlMH3WNeumMdiL53Y2s-20" target="TOlMH3WNeumMdiL53Y2s-21">
          <mxGeometry relative="1" as="geometry" />
        </mxCell>
        <mxCell id="TOlMH3WNeumMdiL53Y2s-20" value="/register" style="rounded=1;whiteSpace=wrap;html=1;fontSize=12;glass=0;strokeWidth=1;shadow=0;" vertex="1" parent="WIyWlLk6GJQsqaUBKTNV-1">
          <mxGeometry x="220" y="60" width="120" height="40" as="geometry" />
        </mxCell>
        <mxCell id="TOlMH3WNeumMdiL53Y2s-44" value="" style="edgeStyle=orthogonalEdgeStyle;rounded=0;orthogonalLoop=1;jettySize=auto;html=1;" edge="1" parent="WIyWlLk6GJQsqaUBKTNV-1" source="TOlMH3WNeumMdiL53Y2s-21" target="TOlMH3WNeumMdiL53Y2s-43">
          <mxGeometry relative="1" as="geometry" />
        </mxCell>
        <mxCell id="TOlMH3WNeumMdiL53Y2s-21" value="前端传入账户密码，将账户密码存入库中" style="rounded=0;whiteSpace=wrap;html=1;" vertex="1" parent="WIyWlLk6GJQsqaUBKTNV-1">
          <mxGeometry x="220" y="180" width="120" height="60" as="geometry" />
        </mxCell>
        <mxCell id="TOlMH3WNeumMdiL53Y2s-32" value="" style="edgeStyle=orthogonalEdgeStyle;rounded=0;orthogonalLoop=1;jettySize=auto;html=1;" edge="1" parent="WIyWlLk6GJQsqaUBKTNV-1" source="TOlMH3WNeumMdiL53Y2s-25" target="TOlMH3WNeumMdiL53Y2s-31">
          <mxGeometry relative="1" as="geometry" />
        </mxCell>
        <mxCell id="TOlMH3WNeumMdiL53Y2s-42" style="edgeStyle=orthogonalEdgeStyle;rounded=0;orthogonalLoop=1;jettySize=auto;html=1;exitX=1;exitY=0.5;exitDx=0;exitDy=0;entryX=0.5;entryY=0;entryDx=0;entryDy=0;" edge="1" parent="WIyWlLk6GJQsqaUBKTNV-1" source="TOlMH3WNeumMdiL53Y2s-25" target="TOlMH3WNeumMdiL53Y2s-33">
          <mxGeometry relative="1" as="geometry">
            <Array as="points">
              <mxPoint x="633" y="220" />
            </Array>
          </mxGeometry>
        </mxCell>
        <mxCell id="TOlMH3WNeumMdiL53Y2s-25" value="从cookie中取出ticket" style="rounded=1;whiteSpace=wrap;html=1;" vertex="1" parent="WIyWlLk6GJQsqaUBKTNV-1">
          <mxGeometry x="389" y="190" width="120" height="60" as="geometry" />
        </mxCell>
        <mxCell id="TOlMH3WNeumMdiL53Y2s-39" value="" style="edgeStyle=orthogonalEdgeStyle;rounded=0;orthogonalLoop=1;jettySize=auto;html=1;" edge="1" parent="WIyWlLk6GJQsqaUBKTNV-1" source="TOlMH3WNeumMdiL53Y2s-26">
          <mxGeometry relative="1" as="geometry">
            <mxPoint x="580" y="439.5" as="targetPoint" />
          </mxGeometry>
        </mxCell>
        <mxCell id="TOlMH3WNeumMdiL53Y2s-26" value="LoginRequired拦截" style="rounded=1;whiteSpace=wrap;html=1;" vertex="1" parent="WIyWlLk6GJQsqaUBKTNV-1">
          <mxGeometry x="384" y="409" width="120" height="61" as="geometry" />
        </mxCell>
        <mxCell id="TOlMH3WNeumMdiL53Y2s-28" value="拦截器（每个请求）" style="text;html=1;align=center;verticalAlign=middle;resizable=0;points=[];autosize=1;strokeColor=none;fillColor=none;" vertex="1" parent="WIyWlLk6GJQsqaUBKTNV-1">
          <mxGeometry x="379" y="160" width="130" height="30" as="geometry" />
        </mxCell>
        <mxCell id="TOlMH3WNeumMdiL53Y2s-31" value="为空返回true" style="rounded=0;whiteSpace=wrap;html=1;" vertex="1" parent="WIyWlLk6GJQsqaUBKTNV-1">
          <mxGeometry x="573" y="130" width="120" height="60" as="geometry" />
        </mxCell>
        <mxCell id="TOlMH3WNeumMdiL53Y2s-35" value="" style="edgeStyle=orthogonalEdgeStyle;rounded=0;orthogonalLoop=1;jettySize=auto;html=1;" edge="1" parent="WIyWlLk6GJQsqaUBKTNV-1" source="TOlMH3WNeumMdiL53Y2s-33" target="TOlMH3WNeumMdiL53Y2s-34">
          <mxGeometry relative="1" as="geometry" />
        </mxCell>
        <mxCell id="TOlMH3WNeumMdiL53Y2s-33" value="从redis中查，看是否对应，对应则将其存入hostHolder，用于保存用户状态" style="rounded=0;whiteSpace=wrap;html=1;" vertex="1" parent="WIyWlLk6GJQsqaUBKTNV-1">
          <mxGeometry x="573" y="230" width="120" height="60" as="geometry" />
        </mxCell>
        <mxCell id="TOlMH3WNeumMdiL53Y2s-36" style="edgeStyle=orthogonalEdgeStyle;rounded=0;orthogonalLoop=1;jettySize=auto;html=1;entryX=0.5;entryY=0;entryDx=0;entryDy=0;" edge="1" parent="WIyWlLk6GJQsqaUBKTNV-1" source="TOlMH3WNeumMdiL53Y2s-34" target="WIyWlLk6GJQsqaUBKTNV-3">
          <mxGeometry relative="1" as="geometry" />
        </mxCell>
        <mxCell id="TOlMH3WNeumMdiL53Y2s-34" value="设置securitycontext保存，设置用户的权限" style="whiteSpace=wrap;html=1;rounded=0;" vertex="1" parent="WIyWlLk6GJQsqaUBKTNV-1">
          <mxGeometry x="573" y="310" width="120" height="60" as="geometry" />
        </mxCell>
        <mxCell id="TOlMH3WNeumMdiL53Y2s-41" style="edgeStyle=orthogonalEdgeStyle;rounded=0;orthogonalLoop=1;jettySize=auto;html=1;entryX=0;entryY=0;entryDx=0;entryDy=0;" edge="1" parent="WIyWlLk6GJQsqaUBKTNV-1" source="TOlMH3WNeumMdiL53Y2s-40" target="WIyWlLk6GJQsqaUBKTNV-3">
          <mxGeometry relative="1" as="geometry">
            <Array as="points">
              <mxPoint x="770" y="439" />
              <mxPoint x="770" y="40" />
              <mxPoint x="140" y="40" />
              <mxPoint x="140" y="60" />
            </Array>
          </mxGeometry>
        </mxCell>
        <mxCell id="TOlMH3WNeumMdiL53Y2s-40" value="根据当前请求的方法是否有LoginRequired注解来进行是否登录处理" style="rounded=0;whiteSpace=wrap;html=1;" vertex="1" parent="WIyWlLk6GJQsqaUBKTNV-1">
          <mxGeometry x="580" y="409" width="120" height="60" as="geometry" />
        </mxCell>
        <mxCell id="TOlMH3WNeumMdiL53Y2s-46" value="" style="edgeStyle=orthogonalEdgeStyle;rounded=0;orthogonalLoop=1;jettySize=auto;html=1;" edge="1" parent="WIyWlLk6GJQsqaUBKTNV-1" source="TOlMH3WNeumMdiL53Y2s-43" target="TOlMH3WNeumMdiL53Y2s-45">
          <mxGeometry relative="1" as="geometry" />
        </mxCell>
        <mxCell id="TOlMH3WNeumMdiL53Y2s-43" value="发送邮件验证（没设置过期时间）" style="whiteSpace=wrap;html=1;rounded=0;" vertex="1" parent="WIyWlLk6GJQsqaUBKTNV-1">
          <mxGeometry x="220" y="280" width="120" height="60" as="geometry" />
        </mxCell>
        <mxCell id="TOlMH3WNeumMdiL53Y2s-45" value="结束" style="whiteSpace=wrap;html=1;rounded=0;" vertex="1" parent="WIyWlLk6GJQsqaUBKTNV-1">
          <mxGeometry x="220" y="360" width="120" height="60" as="geometry" />
        </mxCell>
        <mxCell id="TOlMH3WNeumMdiL53Y2s-51" value="" style="edgeStyle=orthogonalEdgeStyle;rounded=0;orthogonalLoop=1;jettySize=auto;html=1;" edge="1" parent="WIyWlLk6GJQsqaUBKTNV-1" source="TOlMH3WNeumMdiL53Y2s-49" target="TOlMH3WNeumMdiL53Y2s-50">
          <mxGeometry relative="1" as="geometry" />
        </mxCell>
        <mxCell id="TOlMH3WNeumMdiL53Y2s-49" value="/activation/userId/code" style="rounded=1;whiteSpace=wrap;html=1;fontSize=12;glass=0;strokeWidth=1;shadow=0;" vertex="1" parent="WIyWlLk6GJQsqaUBKTNV-1">
          <mxGeometry x="220" y="450" width="120" height="40" as="geometry" />
        </mxCell>
        <mxCell id="TOlMH3WNeumMdiL53Y2s-50" value="激活验证码，更改数据库中验证码状态" style="rounded=0;whiteSpace=wrap;html=1;" vertex="1" parent="WIyWlLk6GJQsqaUBKTNV-1">
          <mxGeometry x="220" y="520" width="120" height="60" as="geometry" />
        </mxCell>
        <mxCell id="TOlMH3WNeumMdiL53Y2s-52" value="清空securitycontext数据" style="rounded=1;whiteSpace=wrap;html=1;" vertex="1" parent="WIyWlLk6GJQsqaUBKTNV-1">
          <mxGeometry x="389" y="619" width="120" height="61" as="geometry" />
        </mxCell>
        <mxCell id="TOlMH3WNeumMdiL53Y2s-54" value="" style="endArrow=none;html=1;rounded=0;" edge="1" parent="WIyWlLk6GJQsqaUBKTNV-1">
          <mxGeometry width="50" height="50" relative="1" as="geometry">
            <mxPoint x="470" y="400" as="sourcePoint" />
            <mxPoint x="520" y="350" as="targetPoint" />
          </mxGeometry>
        </mxCell>
        <mxCell id="TOlMH3WNeumMdiL53Y2s-55" value="" style="endArrow=none;html=1;rounded=0;" edge="1" parent="WIyWlLk6GJQsqaUBKTNV-1">
          <mxGeometry width="50" height="50" relative="1" as="geometry">
            <mxPoint x="360" y="750" as="sourcePoint" />
            <mxPoint x="360" y="10" as="targetPoint" />
          </mxGeometry>
        </mxCell>
      </root>
    </mxGraphModel>
  </diagram>
</mxfile>
